# Rhino

mtllib LowResolution.mtl
usemtl diffuse_Aqua
v 0 0 0
v 0 0 -2.2857143878936768
v 0 0 -4.5714287757873535
v 0 0 -6.8571429252624512
v 0 0 -9.142857551574707
v 0 0 -11.428571701049805
v 0 0 -13.714285850524902
v 0 0 -16
v 2.2857143878936768 0 0
v 2.2857143878936768 0 -2.2857143878936768
v 2.2857143878936768 0 -4.5714287757873535
v 2.2857143878936768 0 -6.8571429252624512
v 2.2857143878936768 0 -9.142857551574707
v 2.2857143878936768 0 -11.428571701049805
v 2.2857143878936768 0 -13.714285850524902
v 2.2857143878936768 0 -16
v 4.5714287757873535 0 0
v 4.5714287757873535 0 -2.2857143878936768
v 4.5714287757873535 0 -13.714285850524902
v 4.5714287757873535 0 -16
v 6.8571429252624512 0 0
v 6.8571429252624512 0 -2.2857143878936768
v 6.8571429252624512 0 -13.714285850524902
v 6.8571429252624512 0 -16
v 9.142857551574707 0 0
v 9.142857551574707 0 -2.2857143878936768
v 9.142857551574707 0 -13.714285850524902
v 9.142857551574707 0 -16
v 11.428571701049805 0 0
v 11.428571701049805 0 -2.2857143878936768
v 11.428571701049805 0 -13.714285850524902
v 11.428571701049805 0 -16
v 13.714285850524902 0 0
v 13.714285850524902 0 -2.2857143878936768
v 13.714285850524902 0 -4.5714287757873535
v 13.714285850524902 0 -6.8571429252624512
v 13.714285850524902 0 -9.142857551574707
v 13.714285850524902 0 -11.428571701049805
v 13.714285850524902 0 -13.714285850524902
v 13.714285850524902 0 -16
v 16 0 0
v 16 0 -2.2857143878936768
v 16 0 -4.5714287757873535
v 16 0 -6.8571429252624512
v 16 0 -9.142857551574707
v 16 0 -11.428571701049805
v 16 0 -13.714285850524902
v 16 0 -16
v 4 0 -4
v 4 0 -5.5999999046325684
v 4 0 -7.1999998092651367
v 4 0 -8.8000001907348633
v 4 0 -10.399999618530273
v 4 0 -12
v 5.5999999046325684 0 -12
v 7.1999998092651367 0 -12
v 8.8000001907348633 0 -12
v 10.399999618530273 0 -12
v 12 0 -12
v 12 0 -10.399999618530273
v 12 0 -8.8000001907348633
v 12 0 -7.1999998092651367
v 12 0 -5.5999999046325684
v 12 0 -4
v 10.399999618530273 0 -4
v 8.8000001907348633 0 -4
v 7.1999998092651367 0 -4
v 5.5999999046325684 0 -4
vt 0 0
vt 0 0.1428571492433548
vt 0 0.28571429848670959
vt 0 0.4285714328289032
vt 0 0.57142859697341919
vt 0 0.71428573131561279
vt 0 0.8571428656578064
vt 0 1
vt 0.1428571492433548 0
vt 0.1428571492433548 0.1428571492433548
vt 0.1428571492433548 0.28571429848670959
vt 0.1428571492433548 0.4285714328289032
vt 0.1428571492433548 0.57142859697341919
vt 0.1428571492433548 0.71428573131561279
vt 0.1428571492433548 0.8571428656578064
vt 0.1428571492433548 1
vt 0.28571429848670959 0
vt 0.28571429848670959 0.1428571492433548
vt 0.28571429848670959 0.8571428656578064
vt 0.28571429848670959 1
vt 0.4285714328289032 0
vt 0.4285714328289032 0.1428571492433548
vt 0.4285714328289032 0.8571428656578064
vt 0.4285714328289032 1
vt 0.57142859697341919 0
vt 0.57142859697341919 0.1428571492433548
vt 0.57142859697341919 0.8571428656578064
vt 0.57142859697341919 1
vt 0.71428573131561279 0
vt 0.71428573131561279 0.1428571492433548
vt 0.71428573131561279 0.8571428656578064
vt 0.71428573131561279 1
vt 0.8571428656578064 0
vt 0.8571428656578064 0.1428571492433548
vt 0.8571428656578064 0.28571429848670959
vt 0.8571428656578064 0.4285714328289032
vt 0.8571428656578064 0.57142859697341919
vt 0.8571428656578064 0.71428573131561279
vt 0.8571428656578064 0.8571428656578064
vt 0.8571428656578064 1
vt 1 0
vt 1 0.1428571492433548
vt 1 0.28571429848670959
vt 1 0.4285714328289032
vt 1 0.57142859697341919
vt 1 0.71428573131561279
vt 1 0.8571428656578064
vt 1 1
vt 0.25 0.25
vt 0.25 0.34999999403953552
vt 0.25 0.44999998807907104
vt 0.25 0.55000001192092896
vt 0.25 0.64999997615814209
vt 0.25 0.75
vt 0.34999999403953552 0.75
vt 0.44999998807907104 0.75
vt 0.55000001192092896 0.75
vt 0.64999997615814209 0.75
vt 0.75 0.75
vt 0.75 0.64999997615814209
vt 0.75 0.55000001192092896
vt 0.75 0.44999998807907104
vt 0.75 0.34999999403953552
vt 0.75 0.25
vt 0.64999997615814209 0.25
vt 0.55000001192092896 0.25
vt 0.44999998807907104 0.25
vt 0.34999999403953552 0.25
vn 0 1 0
vn 0 1 0
vn 0 1 0
vn 0 1 0
vn 0 1 0
vn 0 1 0
vn 0 1 0
vn 0 1 0
vn 0 1 0
vn 0 1 0
vn 0 1 0
vn 0 1 0
vn 0 1 0
vn 0 1 0
vn 0 1 0
vn 0 1 0
vn 0 1 0
vn 0 1 0
vn 0 1 0
vn 0 1 0
vn 0 1 0
vn 0 1 0
vn 0 1 0
vn 0 1 0
vn 0 1 0
vn 0 1 0
vn 0 1 0
vn 0 1 0
vn 0 1 0
vn 0 1 0
vn 0 1 0
vn 0 1 0
vn 0 1 0
vn 0 1 0
vn 0 1 0
vn 0 1 0
vn 0 1 0
vn 0 1 0
vn 0 1 0
vn 0 1 0
vn 0 1 0
vn 0 1 0
vn 0 1 0
vn 0 1 0
vn 0 1 0
vn 0 1 0
vn 0 1 0
vn 0 1 0
vn 0 1 0
vn 0 1 0
vn 0 1 0
vn 0 1 0
vn 0 1 0
vn 0 1 0
vn 0 1 0
vn 0 1 0
vn 0 1 0
vn 0 1 0
vn 0 1 0
vn 0 1 0
vn 0 1 0
vn 0 1 0
vn 0 1 0
vn 0 1 0
vn 0 1 0
vn 0 1 0
vn 0 1 0
vn 0 1 0
f 10/10/10 2/2/2 1/1/1 9/9/9
f 11/11/11 3/3/3 2/2/2 10/10/10
f 12/12/12 4/4/4 3/3/3 11/11/11
f 13/13/13 5/5/5 4/4/4 12/12/12
f 14/14/14 6/6/6 5/5/5 13/13/13
f 15/15/15 7/7/7 6/6/6 14/14/14
f 16/16/16 8/8/8 7/7/7 15/15/15
f 18/18/18 10/10/10 9/9/9 17/17/17
f 20/20/20 16/16/16 15/15/15 19/19/19
f 22/22/22 18/18/18 17/17/17 21/21/21
f 24/24/24 20/20/20 19/19/19 23/23/23
f 26/26/26 22/22/22 21/21/21 25/25/25
f 28/28/28 24/24/24 23/23/23 27/27/27
f 30/30/30 26/26/26 25/25/25 29/29/29
f 32/32/32 28/28/28 27/27/27 31/31/31
f 34/34/34 30/30/30 29/29/29 33/33/33
f 40/40/40 32/32/32 31/31/31 39/39/39
f 42/42/42 34/34/34 33/33/33 41/41/41
f 43/43/43 35/35/35 34/34/34 42/42/42
f 44/44/44 36/36/36 35/35/35 43/43/43
f 45/45/45 37/37/37 36/36/36 44/44/44
f 46/46/46 38/38/38 37/37/37 45/45/45
f 47/47/47 39/39/39 38/38/38 46/46/46
f 48/48/48 40/40/40 39/39/39 47/47/47
f 11/11/11 10/10/10 49/49/49
f 18/18/18 49/49/49 10/10/10
f 12/12/12 11/11/11 50/50/50 51/51/51
f 49/49/49 50/50/50 11/11/11
f 18/18/18 22/22/22 67/67/67 68/68/68
f 22/22/22 26/26/26 66/66/66 67/67/67
f 18/18/18 68/68/68 49/49/49
f 13/13/13 12/12/12 51/51/51 52/52/52
f 53/53/53 13/13/13 52/52/52
f 54/54/54 15/15/15 14/14/14
f 13/13/13 53/53/53 14/14/14
f 53/53/53 54/54/54 14/14/14
f 19/19/19 54/54/54 55/55/55
f 23/23/23 19/19/19 55/55/55 56/56/56
f 56/56/56 57/57/57 27/27/27 23/23/23
f 15/15/15 54/54/54 19/19/19
f 26/26/26 30/30/30 65/65/65 66/66/66
f 30/30/30 64/64/64 65/65/65
f 64/64/64 30/30/30 34/34/34
f 64/64/64 35/35/35 63/63/63
f 62/62/62 63/63/63 36/36/36
f 35/35/35 36/36/36 63/63/63
f 36/36/36 37/37/37 61/61/61 62/62/62
f 34/34/34 35/35/35 64/64/64
f 31/31/31 27/27/27 57/57/57 58/58/58
f 58/58/58 59/59/59 31/31/31
f 37/37/37 38/38/38 60/60/60 61/61/61
f 39/39/39 59/59/59 38/38/38
f 60/60/60 38/38/38 59/59/59
f 31/31/31 59/59/59 39/39/39
usemtl diffuse_Aqua
v 4 8 -12
v 4 4 -12
v 4 0 -12
v 4 8 -12
v 4 4 -8
v 4 0 -4
vt 0 0
vt 0 0.5
vt 0 1
vt 1 0
vt 1 0.5
vt 1 1
vn -1 0 0
vn -1 0 0
vn -1 0 0
vn -1 0 0
vn -1 0 0
vn -1 0 0
f 73/73/73 69/69/69 70/70/70
f 74/74/74 73/73/73 70/70/70 71/71/71
usemtl diffuse_Aqua
v 12 8 -12
v 12 4 -8
v 12 0 -4
v 12 8 -12
v 12 4 -12
v 12 0 -12
vt 0 0
vt 0 0.5
vt 0 1
vt 1 0
vt 1 0.5
vt 1 1
vn 1 0 0
vn 1 0 0
vn 1 0 0
vn 1 0 0
vn 1 0 0
vn 1 0 0
f 79/79/79 75/75/75 76/76/76
f 80/80/80 79/79/79 76/76/76 77/77/77
usemtl diffuse_Aqua
v 12 8 -12
v 12 0 -4
v 4 8 -12
v 4 0 -4
vt 0 0
vt 0 1
vt 1 0
vt 1 1
vn 0 0.70710676908493042 0.70710676908493042
vn 0 0.70710676908493042 0.70710676908493042
vn 0 0.70710676908493042 0.70710676908493042
vn 0 0.70710676908493042 0.70710676908493042
f 84/84/84 82/82/82 81/81/81 83/83/83
usemtl diffuse_Aqua
v 4 8 -12
v 4 0 -12
v 12 8 -12
v 12 0 -12
vt 0 0
vt 0 1
vt 1 0
vt 1 1
vn 0 0 -1
vn 0 0 -1
vn 0 0 -1
vn 0 0 -1
f 88/88/88 86/86/86 85/85/85 87/87/87
