<?xml version="1.0" standalone="no"?>
<!DOCTYPE svg PUBLIC "-//W3C//DTD SVG 20010904//EN"
 "http://www.w3.org/TR/2001/REC-SVG-20010904/DTD/svg10.dtd">
<svg version="1.0" xmlns="http://www.w3.org/2000/svg"
 width="512.000000pt" height="512.000000pt" viewBox="0 0 512.000000 512.000000"
 preserveAspectRatio="xMidYMid meet">
<metadata>
Created by potrace 1.11, written by Peter Selinger 2001-2013
</metadata>
<g transform="translate(0.000000,512.000000) scale(0.100000,-0.100000)"
fill="#000000" stroke="none">
<path d="M2375 4985 c-114 -25 -269 -94 -344 -153 -21 -17 -22 -22 -11 -42 7
-13 55 -357 107 -764 51 -408 118 -932 148 -1166 30 -234 88 -693 129 -1020
42 -327 82 -626 90 -665 15 -67 33 -197 59 -410 10 -78 16 -100 29 -103 14 -3
16 21 20 220 3 164 9 242 22 293 9 39 50 338 92 665 41 327 99 786 129 1020
30 234 97 758 148 1166 52 407 100 751 107 764 11 20 10 25 -11 42 -78 61
-231 128 -351 153 -85 18 -280 18 -363 0z"/>
<path d="M1727 4799 c-297 -32 -580 -221 -711 -476 -21 -41 -21 -40 12 -35 47
7 78 -30 111 -133 16 -49 75 -216 131 -370 97 -269 248 -692 315 -880 103
-289 237 -666 325 -910 56 -154 114 -316 129 -360 57 -163 151 -422 181 -500
17 -44 49 -127 70 -185 75 -200 89 -235 90 -215 0 34 -40 338 -51 378 -10 38
-22 128 -114 847 -58 459 -251 1969 -316 2478 -22 173 -38 326 -37 340 3 24
-1 27 -27 28 -16 1 -65 -2 -108 -7z"/>
<path d="M3257 4804 c-4 -4 -4 -16 -1 -28 3 -12 -13 -163 -35 -336 -66 -518
-258 -2025 -316 -2480 -92 -719 -104 -809 -114 -847 -11 -40 -51 -344 -51
-378 1 -20 15 15 90 215 21 58 53 141 70 185 30 78 124 337 181 500 15 44 73
206 129 360 88 244 222 621 325 910 67 188 218 611 315 880 56 154 115 321
131 370 33 103 64 140 111 133 33 -5 33 -6 12 35 -120 233 -380 422 -642 466
-87 15 -197 23 -205 15z"/>
<path d="M873 4166 c-133 -64 -263 -178 -352 -309 -46 -67 -106 -200 -126
-276 -23 -89 -37 -227 -30 -283 6 -43 9 -48 33 -48 29 0 90 -60 132 -129 14
-23 57 -84 96 -136 40 -52 74 -100 77 -107 4 -12 32 -51 192 -269 33 -45 66
-94 74 -108 8 -14 42 -62 76 -106 34 -44 68 -91 75 -105 7 -14 41 -61 75 -105
34 -44 68 -92 76 -106 8 -14 41 -63 74 -108 156 -213 186 -255 197 -275 6 -11
39 -58 74 -103 34 -44 68 -92 75 -105 7 -12 40 -59 73 -102 34 -44 68 -92 76
-106 15 -27 41 -64 175 -248 39 -53 81 -114 94 -135 24 -39 42 -46 22 -8 -6
11 -29 69 -51 128 -21 59 -55 151 -75 203 -20 52 -79 217 -132 365 -53 149
-111 311 -128 360 -104 289 -161 449 -186 520 -15 44 -73 206 -129 360 -55
154 -143 402 -196 550 -53 149 -111 311 -129 360 -18 50 -62 174 -98 277 l-65
187 -69 -33z"/>
<path d="M4111 4011 c-35 -102 -78 -226 -96 -276 -18 -49 -76 -211 -129 -360
-53 -148 -141 -396 -196 -550 -56 -154 -114 -316 -129 -360 -25 -71 -82 -231
-186 -520 -17 -49 -75 -211 -128 -360 -53 -148 -112 -313 -132 -365 -20 -52
-54 -144 -75 -203 -22 -59 -45 -117 -51 -128 -20 -38 -2 -31 22 8 13 21 55 82
94 135 134 184 160 221 175 248 8 14 42 62 76 106 33 43 66 90 73 102 7 13 41
61 75 105 35 45 68 92 74 103 11 20 41 62 197 275 33 45 66 94 74 108 8 14 42
62 76 106 34 44 68 91 75 105 7 14 41 61 75 105 34 44 68 92 76 106 8 14 41
63 74 108 160 218 188 257 192 269 3 7 37 55 77 107 39 52 82 113 96 136 42
69 103 129 132 129 24 0 27 5 33 48 7 56 -7 194 -30 283 -32 124 -107 264
-203 377 -71 83 -230 196 -325 231 -21 7 -25 -2 -86 -178z"/>
<path d="M286 3057 c-80 -143 -116 -282 -116 -449 0 -132 16 -203 73 -313 39
-76 67 -107 584 -625 l543 -546 0 -100 c0 -99 0 -100 -29 -117 -16 -9 -39 -17
-50 -17 -32 0 -149 -60 -211 -107 -174 -135 -267 -233 -317 -334 -61 -122 -95
-208 -90 -223 13 -34 3761 -34 3774 0 5 15 -29 101 -90 223 -50 101 -143 199
-317 334 -62 47 -179 107 -211 107 -11 0 -34 8 -50 17 -29 17 -29 18 -29 117
l0 100 543 546 c517 518 545 549 584 625 57 110 73 181 73 313 0 122 -16 214
-55 318 -24 63 -91 194 -100 194 -2 0 -25 -33 -51 -72 -27 -40 -69 -100 -95
-133 -25 -33 -52 -71 -59 -85 -7 -14 -41 -61 -75 -105 -34 -44 -68 -91 -75
-104 -7 -14 -40 -62 -74 -108 -33 -45 -95 -130 -136 -188 -41 -58 -103 -144
-138 -191 -34 -48 -68 -96 -74 -108 -6 -11 -39 -58 -74 -103 -34 -44 -68 -92
-75 -105 -7 -12 -40 -60 -73 -106 -58 -79 -116 -159 -281 -392 -41 -58 -94
-132 -117 -164 -24 -33 -50 -71 -58 -86 -8 -14 -42 -62 -76 -106 -33 -43 -66
-90 -73 -102 -7 -13 -41 -61 -75 -105 -35 -45 -68 -92 -74 -103 -10 -19 -99
-142 -163 -227 -11 -15 -33 -30 -47 -33 -15 -3 -38 -11 -52 -19 -19 -10 -56
-12 -145 -9 -66 2 -124 4 -130 4 -5 0 -39 -3 -74 -5 -43 -3 -73 0 -90 10 -14
7 -38 16 -53 19 -14 3 -36 18 -47 33 -64 85 -153 208 -163 227 -6 11 -39 58
-74 103 -34 44 -68 92 -75 105 -7 12 -40 59 -73 102 -34 44 -68 92 -76 106 -8
15 -34 53 -58 86 -23 32 -76 106 -117 164 -165 233 -223 313 -281 392 -33 46
-66 94 -73 106 -7 13 -41 61 -75 105 -35 45 -68 92 -74 103 -6 12 -40 60 -74
108 -35 47 -97 133 -138 191 -41 58 -103 143 -136 188 -34 46 -67 94 -74 108
-7 13 -41 60 -75 104 -34 44 -68 91 -75 105 -7 14 -34 52 -59 85 -26 33 -68
93 -95 133 -26 39 -49 72 -51 72 -2 0 -20 -28 -39 -63z"/>
</g>
</svg>
