<?xml version="1.0" standalone="no"?>
<!DOCTYPE svg PUBLIC "-//W3C//DTD SVG 20010904//EN"
 "http://www.w3.org/TR/2001/REC-SVG-20010904/DTD/svg10.dtd">
<svg version="1.0" xmlns="http://www.w3.org/2000/svg"
 width="480.000000pt" height="480.000000pt" viewBox="0 0 480.000000 480.000000"
 preserveAspectRatio="xMidYMid meet">
<metadata>
Created by potrace 1.11, written by Peter Selinger 2001-2013
</metadata>
<g transform="translate(0.000000,480.000000) scale(0.100000,-0.100000)"
fill="#000000" stroke="none">
<path d="M2205 4785 c-122 -27 -259 -89 -351 -159 -41 -31 -43 -32 -115 -25
-86 9 -238 -4 -324 -28 -81 -22 -209 -81 -285 -133 -128 -87 -255 -240 -311
-375 -22 -54 -25 -57 -104 -94 -143 -68 -272 -178 -364 -314 -113 -166 -175
-409 -153 -601 8 -66 7 -69 -23 -110 -114 -149 -175 -336 -175 -538 0 -132 16
-203 73 -313 39 -76 67 -107 584 -625 l543 -546 0 -380 0 -380 25 -51 c16 -32
41 -61 67 -79 l41 -29 1067 0 1067 0 41 29 c26 18 51 47 67 79 l25 51 0 380 0
380 543 546 c517 518 545 549 584 625 57 110 73 181 73 313 0 203 -60 388
-174 537 -32 42 -32 44 -24 111 23 198 -39 434 -162 614 -87 128 -240 255
-375 311 -54 22 -58 26 -89 95 -68 145 -179 277 -306 364 -79 54 -207 114
-286 134 -89 23 -238 36 -323 27 -72 -7 -74 -6 -115 25 -95 72 -230 132 -358
159 -86 18 -300 18 -383 0z m355 -149 c36 -8 95 -26 130 -40 79 -32 190 -105
191 -126 1 -31 -476 -3760 -481 -3760 -5 0 -482 3729 -481 3760 2 38 194 139
316 165 80 18 244 18 325 1z m-794 -190 c2 -3 481 -3771 479 -3773 -1 -2 -295
733 -654 1632 -520 1302 -651 1641 -646 1663 8 38 74 150 122 209 122 149 341
261 538 276 33 2 158 -3 161 -7z m1544 -12 c147 -30 327 -139 423 -257 51 -62
116 -174 122 -212 4 -22 -7 -62 -40 -142 -25 -62 -45 -126 -45 -143 0 -58 67
-90 116 -56 11 8 38 59 60 115 24 62 44 101 53 101 44 0 204 -120 276 -207
117 -142 176 -306 176 -491 0 -76 -4 -121 -13 -140 -14 -26 -1710 -2357 -1731
-2377 -6 -7 -8 -7 -4 0 31 57 1107 2782 1107 2804 0 58 -85 91 -127 48 -6 -6
-261 -637 -566 -1402 -624 -1567 -568 -1428 -563 -1395 2 14 111 867 242 1897
l238 1872 51 3 c70 5 138 -1 225 -18z m-1935 -1999 c307 -770 595 -1494 641
-1609 46 -115 80 -205 75 -200 -5 5 -320 437 -701 959 -381 523 -697 953 -704
957 -22 15 -76 8 -96 -12 -47 -47 -72 -10 798 -1203 450 -617 822 -1128 827
-1136 4 -8 -16 -1 -46 14 -43 23 -250 225 -977 949 -559 558 -939 944 -962
980 -56 82 -80 167 -80 280 0 136 38 268 108 381 l27 44 65 -87 c60 -80 68
-87 103 -90 51 -4 77 19 77 67 0 30 -15 57 -81 146 -44 61 -85 121 -91 135 -5
14 -9 75 -9 135 0 282 147 529 401 673 30 17 57 28 61 24 3 -4 257 -637 564
-1407z m3220 256 c38 -91 55 -176 55 -277 0 -113 -24 -198 -80 -280 -23 -36
-404 -423 -962 -980 -725 -723 -934 -926 -977 -948 -35 -19 -50 -23 -45 -13 5
8 441 607 969 1330 l960 1316 27 -44 c15 -24 39 -71 53 -104z m-2616 -2538 c2
-2 -129 -3 -292 -3 -284 0 -298 1 -317 20 -19 19 -20 33 -20 312 l0 293 312
-310 c172 -171 314 -311 317 -312z m1471 327 c0 -277 -1 -291 -20 -310 -19
-19 -33 -20 -313 -20 l-293 0 311 310 c170 170 311 310 313 310 1 0 2 -130 2
-290z"/>
</g>
</svg>
