<?xml version="1.0" standalone="no"?>
<!DOCTYPE svg PUBLIC "-//W3C//DTD SVG 20010904//EN"
 "http://www.w3.org/TR/2001/REC-SVG-20010904/DTD/svg10.dtd">
<svg version="1.0" xmlns="http://www.w3.org/2000/svg"
 width="300.000000pt" height="300.000000pt" viewBox="0 0 300.000000 300.000000"
 preserveAspectRatio="xMidYMid meet">
<metadata>
Created by potrace 1.11, written by Peter Selinger 2001-2013
</metadata>
<g transform="translate(0.000000,300.000000) scale(0.100000,-0.100000)"
fill="#000000" stroke="none">
<path d="M1365 2573 c-47 -10 -104 -35 -109 -48 -3 -8 -1 -29 4 -47 47 -161
109 -567 130 -853 6 -77 13 -158 15 -180 2 -22 6 -173 9 -335 4 -247 3 -267
-4 -125 -31 604 -66 974 -116 1230 -61 309 -62 311 -104 320 -78 17 -259 -43
-289 -96 -13 -24 -10 -34 38 -150 29 -68 57 -133 61 -144 24 -54 122 -366 153
-490 43 -165 90 -397 111 -548 25 -170 17 -157 -19 33 -86 445 -183 796 -303
1088 -61 149 -75 172 -106 172 -80 0 -234 -102 -252 -166 -4 -15 13 -49 55
-117 80 -127 174 -303 239 -447 11 -25 32 -72 47 -105 66 -149 211 -572 203
-596 -2 -5 -18 34 -37 88 -133 395 -317 806 -468 1048 -60 95 -79 103 -147 56
-72 -50 -137 -168 -119 -217 3 -11 28 -43 54 -71 191 -211 379 -510 533 -846
58 -126 41 -103 -43 58 -105 202 -147 276 -256 440 -93 140 -255 349 -286 368
-24 15 -62 -13 -96 -70 -24 -41 -28 -59 -28 -120 l0 -71 130 -129 c72 -70 175
-182 230 -248 125 -153 135 -167 55 -80 -116 125 -254 268 -315 327 -47 46
-67 58 -92 58 -81 0 -66 -123 30 -247 44 -57 154 -167 232 -231 22 -18 6 -10
-35 18 -41 28 -106 78 -143 112 -54 48 -71 58 -78 47 -25 -40 6 -149 62 -213
62 -71 123 -101 309 -155 166 -49 208 -64 272 -96 63 -32 152 -96 245 -176 96
-82 225 -129 360 -129 146 0 265 46 393 151 117 97 194 148 262 176 60 24 217
73 303 94 107 27 225 106 270 183 27 46 42 142 26 166 -9 12 -18 7 -58 -31
-50 -47 -90 -79 -183 -143 l-55 -38 45 37 c25 21 89 82 143 137 76 77 105 114
132 170 52 108 45 168 -19 168 -30 0 -49 -16 -178 -147 -80 -82 -171 -177
-203 -213 -81 -91 -106 -114 -60 -55 101 129 200 240 319 358 125 124 129 129
134 176 6 61 -18 134 -59 184 -17 20 -39 37 -49 37 -20 0 -80 -66 -185 -205
-129 -170 -270 -400 -387 -631 -35 -67 -64 -121 -67 -119 -2 2 42 95 97 207
138 280 283 504 446 691 83 96 89 108 77 155 -23 85 -126 192 -183 192 -28 0
-57 -38 -130 -165 -146 -257 -284 -576 -414 -955 -34 -102 -63 -182 -63 -177
-4 45 137 469 221 667 80 188 293 586 339 634 48 51 -138 206 -247 206 -30 0
-44 -21 -105 -166 -119 -281 -239 -729 -318 -1180 -34 -197 -40 -187 -11 18
58 405 180 865 315 1183 26 61 52 122 58 136 8 22 7 32 -6 52 -33 51 -204 107
-282 93 -43 -8 -46 -15 -79 -166 -68 -311 -114 -725 -136 -1225 -16 -356 -19
-361 -14 -25 3 162 7 313 9 335 2 22 9 101 15 175 6 74 13 146 15 160 2 14 9
70 15 125 20 174 65 436 95 545 15 54 15 55 -9 77 -14 11 -48 26 -76 32 -49
10 -243 13 -285 4z m-620 -1503 c10 -11 16 -20 13 -20 -3 0 -13 9 -23 20 -10
11 -16 20 -13 20 3 0 13 -9 23 -20z m1535 17 c0 -2 -10 -12 -22 -23 l-23 -19
19 23 c18 21 26 27 26 19z m-993 -179 c-2 -13 -4 -5 -4 17 -1 22 1 32 4 23 2
-10 2 -28 0 -40z m-138 -8 c0 -9 -4 -8 -9 5 -5 11 -9 27 -9 35 0 9 4 8 9 -5 5
-11 9 -27 9 -35z m8 -42 c-3 -8 -6 -5 -6 6 -1 11 2 17 5 13 3 -3 4 -12 1 -19z
m140 -15 c-3 -10 -5 -4 -5 12 0 17 2 24 5 18 2 -7 2 -21 0 -30z m410 0 c-3
-10 -5 -4 -5 12 0 17 2 24 5 18 2 -7 2 -21 0 -30z m140 15 c-3 -8 -6 -5 -6 6
-1 11 2 17 5 13 3 -3 4 -12 1 -19z m-540 -90 c-3 -7 -5 -2 -5 12 0 14 2 19 5
13 2 -7 2 -19 0 -25z"/>
<path d="M809 773 c14 -38 18 -70 15 -147 -2 -98 -2 -99 26 -123 35 -29 80
-43 140 -43 66 0 262 28 272 38 6 6 -11 21 -39 37 -26 15 -100 69 -163 120
-123 99 -224 165 -252 165 -17 0 -17 -3 1 -47z"/>
<path d="M2116 784 c-33 -19 -115 -80 -182 -134 -68 -55 -142 -109 -165 -121
-26 -13 -38 -24 -32 -30 15 -15 242 -42 307 -36 108 10 140 52 132 174 -5 67
-2 92 13 133 17 45 18 50 3 50 -10 0 -44 -16 -76 -36z"/>
</g>
</svg>
